<svg xmlns="http://www.w3.org/2000/svg" xmlns:xlink="http://www.w3.org/1999/xlink" version="1.1" data-diagram-type="DESCRIPTION" style="width:593px;height:604px;background:#0B1220;" width="593px" height="604px" viewBox="0 0 593 604" zoomAndPan="magnify" preserveAspectRatio="none" contentStyleType="text/css"><?plantuml 1.2026.8?><defs><filter id="f1eiykmxneb7oa" x="-1" y="-1" width="300%" height="300%"><feGaussianBlur result="blurOut" stdDeviation="2"/><feColorMatrix type="matrix" in="blurOut" result="blurOut2" values="0 0 0 0 0 0 0 0 0 0 0 0 0 0 0 0 0 0 .4 0"/><feOffset result="blurOut3" in="blurOut2" dx="4" dy="4"/><feBlend in="SourceGraphic" in2="blurOut3" mode="normal"/></filter></defs><g font-family="sans-serif" lengthAdjust="spacing"><rect x="0" y="0" width="593" height="604" fill="#0B1220" style="stroke:none;"/><g class="title" data-source-line="97"><text x="124.541" y="28.564" fill="#F9FAFB" font-size="20" textLength="337.607" font-weight="700" font-family="'Segoe UI, Helvetica, Arial, sans-serif'">Data paths to Home Assistant</text></g><!--entity mc100--><g class="entity" data-qualified-name="mc100" id="ent0001" data-source-line="100"><rect x="113.38" y="51.281" width="138.992" height="75.398" fill="#1C1917" style="stroke:#F59E0B;stroke-width:0.5;" filter="url(#f1eiykmxneb7oa)" rx="7" ry="7"/><rect x="232.372" y="56.281" width="15" height="10" fill="#1C1917" style="stroke:#F59E0B;stroke-width:0.5;"/><rect x="230.372" y="58.281" width="4" height="2" fill="#1C1917" style="stroke:#F59E0B;stroke-width:0.5;"/><rect x="230.372" y="62.281" width="4" height="2" fill="#1C1917" style="stroke:#F59E0B;stroke-width:0.5;"/><text x="161.88" y="83.348" fill="#FEF3C7" font-size="13" textLength="31.992" font-style="italic" font-family="'Segoe UI, Helvetica, Arial, sans-serif'">«pv»</text><text x="128.38" y="98.481" fill="#FEF3C7" font-size="13" textLength="98.992" font-family="'Segoe UI, Helvetica, Arial, sans-serif'">Atmoce MC100</text><text x="128.38" y="113.614" fill="#FEF3C7" font-size="13" textLength="84.011" font-family="'Segoe UI, Helvetica, Arial, sans-serif'">Modbus :502</text></g><!--entity sf3000--><g class="entity" data-qualified-name="sf3000" id="ent0002" data-source-line="101"><rect x="103.55" y="174.281" width="158.663" height="75.398" fill="#0C4A6E" style="stroke:#38BDF8;stroke-width:0.5;" filter="url(#f1eiykmxneb7oa)" rx="7" ry="7"/><rect x="242.213" y="179.281" width="15" height="10" fill="#0C4A6E" style="stroke:#38BDF8;stroke-width:0.5;"/><rect x="240.213" y="181.281" width="4" height="2" fill="#0C4A6E" style="stroke:#38BDF8;stroke-width:0.5;"/><rect x="240.213" y="185.281" width="4" height="2" fill="#0C4A6E" style="stroke:#38BDF8;stroke-width:0.5;"/><text x="157.493" y="206.348" fill="#E0F2FE" font-size="13" textLength="40.777" font-style="italic" font-family="'Segoe UI, Helvetica, Arial, sans-serif'">«hub»</text><text x="118.55" y="221.481" fill="#E0F2FE" font-size="13" textLength="118.663" font-family="'Segoe UI, Helvetica, Arial, sans-serif'">Home Energy Hub</text><text x="118.55" y="236.614" fill="#E0F2FE" font-size="13" textLength="107.358" font-family="'Segoe UI, Helvetica, Arial, sans-serif'">OpenData :8080</text></g><!--entity ha--><g class="entity" data-qualified-name="ha" id="ent0003" data-source-line="102"><rect x="96.4" y="297.281" width="172.952" height="75.398" fill="#14532D" style="stroke:#22C55E;stroke-width:0.5;" filter="url(#f1eiykmxneb7oa)" rx="7" ry="7"/><rect x="249.352" y="302.281" width="15" height="10" fill="#14532D" style="stroke:#22C55E;stroke-width:0.5;"/><rect x="247.352" y="304.281" width="4" height="2" fill="#14532D" style="stroke:#22C55E;stroke-width:0.5;"/><rect x="247.352" y="308.281" width="4" height="2" fill="#14532D" style="stroke:#22C55E;stroke-width:0.5;"/><text x="161.75" y="329.348" fill="#DCFCE7" font-size="13" textLength="32.252" font-style="italic" font-family="'Segoe UI, Helvetica, Arial, sans-serif'">«ha»</text><text x="111.4" y="344.481" fill="#DCFCE7" font-size="13" textLength="101.747" font-family="'Segoe UI, Helvetica, Arial, sans-serif'">Home Assistant</text><text x="111.4" y="359.614" fill="#DCFCE7" font-size="13" textLength="132.952" font-family="'Segoe UI, Helvetica, Arial, sans-serif'">VM on Freebox Ultra</text></g><!--entity emu--><g class="entity" data-qualified-name="emu" id="ent0004" data-source-line="103"><rect x="106.32" y="509.281" width="153.122" height="75.398" fill="#14532D" style="stroke:#4ADE80;stroke-width:0.5;" filter="url(#f1eiykmxneb7oa)" rx="7" ry="7"/><rect x="239.442" y="514.281" width="15" height="10" fill="#14532D" style="stroke:#4ADE80;stroke-width:0.5;"/><rect x="237.442" y="516.281" width="4" height="2" fill="#14532D" style="stroke:#4ADE80;stroke-width:0.5;"/><rect x="237.442" y="520.281" width="4" height="2" fill="#14532D" style="stroke:#4ADE80;stroke-width:0.5;"/><text x="154.033" y="541.348" fill="#DCFCE7" font-size="13" textLength="47.696" font-style="italic" font-family="'Segoe UI, Helvetica, Arial, sans-serif'">«solar»</text><text x="121.32" y="556.481" fill="#DCFCE7" font-size="13" textLength="102.413" font-family="'Segoe UI, Helvetica, Arial, sans-serif'">Shelly emulator</text><text x="121.32" y="571.614" fill="#DCFCE7" font-size="13" textLength="113.122" font-family="'Segoe UI, Helvetica, Arial, sans-serif'">reads HA sensors</text></g><!--entity edash--><g class="entity" data-qualified-name="edash" id="ent0005" data-source-line="104"><rect x="407.29" y="304.851" width="158.873" height="60.266" fill="#1F2937" style="stroke:#475569;stroke-width:0.5;" filter="url(#f1eiykmxneb7oa)" rx="7" ry="7"/><rect x="546.163" y="309.851" width="15" height="10" fill="#1F2937" style="stroke:#475569;stroke-width:0.5;"/><rect x="544.163" y="311.851" width="4" height="2" fill="#1F2937" style="stroke:#475569;stroke-width:0.5;"/><rect x="544.163" y="315.851" width="4" height="2" fill="#1F2937" style="stroke:#475569;stroke-width:0.5;"/><text x="463.058" y="336.918" fill="#CBD5E1" font-size="13" textLength="37.337" font-style="italic" font-family="'Segoe UI, Helvetica, Arial, sans-serif'">«out»</text><text x="422.29" y="352.051" fill="#CBD5E1" font-size="13" textLength="118.873" font-family="'Segoe UI, Helvetica, Arial, sans-serif'">Energy dashboard</text></g><!--entity iapp--><g class="entity" data-qualified-name="iapp" id="ent0006" data-source-line="105"><rect x="399.76" y="509.281" width="173.929" height="75.398" fill="#1F2937" style="stroke:#475569;stroke-width:0.5;" filter="url(#f1eiykmxneb7oa)" rx="7" ry="7"/><rect x="553.689" y="514.281" width="15" height="10" fill="#1F2937" style="stroke:#475569;stroke-width:0.5;"/><rect x="551.689" y="516.281" width="4" height="2" fill="#1F2937" style="stroke:#475569;stroke-width:0.5;"/><rect x="551.689" y="520.281" width="4" height="2" fill="#1F2937" style="stroke:#475569;stroke-width:0.5;"/><text x="463.056" y="541.348" fill="#CBD5E1" font-size="13" textLength="37.337" font-style="italic" font-family="'Segoe UI, Helvetica, Arial, sans-serif'">«out»</text><text x="414.76" y="556.481" fill="#CBD5E1" font-size="13" textLength="81.282" font-family="'Segoe UI, Helvetica, Arial, sans-serif'">Indevolt app</text><text x="414.76" y="571.614" fill="#CBD5E1" font-size="13" textLength="133.929" font-family="'Segoe UI, Helvetica, Arial, sans-serif'">Grid + Solar sources</text></g><!--entity atmozen--><g class="entity" data-qualified-name="atmozen" id="ent0007" data-source-line="106"><rect x="423.59" y="58.851" width="126.271" height="60.266" fill="#1F2937" style="stroke:#475569;stroke-width:0.5;" filter="url(#f1eiykmxneb7oa)" rx="7" ry="7"/><rect x="529.861" y="63.851" width="15" height="10" fill="#1F2937" style="stroke:#475569;stroke-width:0.5;"/><rect x="527.861" y="65.851" width="4" height="2" fill="#1F2937" style="stroke:#475569;stroke-width:0.5;"/><rect x="527.861" y="69.851" width="4" height="2" fill="#1F2937" style="stroke:#475569;stroke-width:0.5;"/><text x="463.057" y="90.918" fill="#CBD5E1" font-size="13" textLength="37.337" font-style="italic" font-family="'Segoe UI, Helvetica, Arial, sans-serif'">«out»</text><text x="438.59" y="106.051" fill="#CBD5E1" font-size="13" textLength="86.271" font-family="'Segoe UI, Helvetica, Arial, sans-serif'">Atmozen app</text></g><g class="entity" data-qualified-name="GMN14" id="ent0015" data-source-line="116"><path d="M6,427.851 L6,454.117 A7,7 0 0 0 13,461.117 L352.757,461.117 A7,7 0 0 0 359.757,454.117 L359.757,430.851 L349.757,420.851 L186.69,420.851 L182.69,372.951 L178.69,420.851 L13,420.851 A7,7 0 0 0 6,427.851" style="stroke:#475569;stroke-width:0.5;" fill="#1E293B" filter="url(#f1eiykmxneb7oa)"/><path d="M349.757,420.851 L349.757,427.351 A3.5,3.5 0 0 0 353.257,430.851 L359.757,430.851 L349.757,420.851" style="stroke:#475569;stroke-width:0.5;" fill="#1E293B"/><text x="12" y="437.918" fill="#94A3B8" font-size="13" textLength="332.757" font-family="'Segoe UI, Helvetica, Arial, sans-serif'">Shelly emulator bridges Atmoce PV into Indevolt —</text><text x="12" y="453.051" fill="#94A3B8" font-size="13" textLength="310.146" font-family="'Segoe UI, Helvetica, Arial, sans-serif'">the hub does not read Atmoce Modbus directly.</text></g><!--link mc100 to ha--><g class="link" data-entity-1="ent0001" data-entity-2="ent0003" id="lnk8" data-source-line="108" data-link-type="dependency"><path d="M252.75,122.901 C260.51,122.901 265.69,122.901 265.69,122.901 C265.69,122.901 265.69,231.061 265.69,292.061" style="stroke:#64748B;stroke-width:1.5;" fill="none" id="mc100-to-ha"/><polygon points="265.69,297.061,269.69,288.061,265.69,292.061,261.69,288.061,265.69,297.061" fill="#64748B" style="stroke:#64748B;stroke-width:1.5;stroke-linejoin:miter;stroke-miterlimit:10;"/><text x="266.69" y="214.722" fill="#F59E0B" font-size="11" textLength="106.81" font-family="'Segoe UI, Helvetica, Arial, sans-serif'">Modbus integration</text></g><!--link sf3000 to ha--><g class="link" data-entity-1="ent0002" data-entity-2="ent0003" id="lnk9" data-source-line="109" data-link-type="dependency"><path d="M182.69,249.891 C182.69,264.851 182.69,277.011 182.69,291.991" style="stroke:#64748B;stroke-width:1.5;" fill="none" id="sf3000-to-ha"/><polygon points="182.69,296.991,186.69,287.991,182.69,291.991,178.69,287.991,182.69,296.991" fill="#64748B" style="stroke:#64748B;stroke-width:1.5;stroke-linejoin:miter;stroke-miterlimit:10;"/><text x="73.69" y="284.652" fill="#38BDF8" font-size="11" textLength="108.496" font-family="'Segoe UI, Helvetica, Arial, sans-serif'">Indevolt integration</text></g><!--link ha to emu--><g class="link" data-entity-1="ent0003" data-entity-2="ent0004" id="lnk10" data-source-line="110" data-link-type="dependency"><path d="M269.77,368.901 C322.5,368.901 379.69,368.901 379.69,368.901 C379.69,368.901 379.69,534.411 379.69,534.411 C379.69,534.411 320.01,534.411 264.81,534.411" style="stroke:#64748B;stroke-width:1.5;" fill="none" id="ha-to-emu"/><polygon points="259.81,534.411,268.81,538.411,264.81,534.411,268.81,530.411,259.81,534.411" fill="#64748B" style="stroke:#64748B;stroke-width:1.5;stroke-linejoin:miter;stroke-miterlimit:10;"/><text x="380.69" y="467.852" fill="#94A3B8" font-size="11" textLength="71.35" font-family="'Segoe UI, Helvetica, Arial, sans-serif'">hosts add-on</text></g><!--link ha to edash--><g class="link" data-entity-1="ent0003" data-entity-2="ent0005" id="lnk11" data-source-line="111" data-link-type="dependency"><path d="M269.54,334.981 C312.78,334.981 359.72,334.981 401.97,334.981" style="stroke:#64748B;stroke-width:1.5;" fill="none" id="ha-to-edash"/><polygon points="406.97,334.981,397.97,330.981,401.97,334.981,397.97,338.981,406.97,334.981" fill="#64748B" style="stroke:#64748B;stroke-width:1.5;stroke-linejoin:miter;stroke-miterlimit:10;"/></g><!--link emu to iapp--><g class="link" data-entity-1="ent0004" data-entity-2="ent0006" id="lnk12" data-source-line="112" data-link-type="dependency"><path d="M259.55,559.551 C302.1,559.551 350.17,559.551 394.32,559.551" style="stroke:#64748B;stroke-width:1.5;stroke-dasharray:7,7;" fill="none" id="emu-to-iapp"/><polygon points="399.32,559.551,390.32,555.551,394.32,559.551,390.32,563.551,399.32,559.551" fill="#64748B" style="stroke:#64748B;stroke-width:1.5;stroke-linejoin:miter;stroke-miterlimit:10;"/><text x="279.44" y="570.762" fill="#4ADE80" font-size="11" textLength="49.543" font-family="'Segoe UI, Helvetica, Arial, sans-serif'">HTTP :80</text></g><!--link mc100 to atmozen--><g class="link" data-entity-1="ent0001" data-entity-2="ent0007" id="lnk13" data-source-line="113" data-link-type="dependency"><path d="M252.59,88.981 C304.01,88.981 368.41,88.981 418.29,88.981" style="stroke:#64748B;stroke-width:1.5;stroke-dasharray:7,7;" fill="none" id="mc100-to-atmozen"/><polygon points="423.29,88.981,414.29,84.981,418.29,88.981,414.29,92.981,423.29,88.981" fill="#64748B" style="stroke:#64748B;stroke-width:1.5;stroke-linejoin:miter;stroke-miterlimit:10;"/></g><?plantuml-src hLRDZjis4BxhAGRRGrjqTwDVMpOM1hPf4kUmRL1lSlA558UIO9aKI7fJfmZGXyWJvabAIbglP5jf5kXDuimttyp7uP0_mgeW2XcO0hS8N__v0eoe3InVtQsW9XKQW_3JhTdA3E45l1KC7sHbxEVozcTFRqfH4qMsG4csoPNS2VPILbB13puDmj3lUJ3aP5UPrrAOtucbkbXXBX7Ulxs49LOFQCgCNCAjAabr2Pe8VQLHbVpYV8XL-GaXYCuRknGmmIdIdeik29CVIv63KJli6Ph4Cwa4AWZYdg4g1PfzZI2LAMJF82H3ZJN4QJyC4PjcqVTwgwOq5SBV7a0lDpxZXDDkhId6YjNzcRtrfx9YtkT-dDfAJF8sqg_7SWT1a8PJPv6AeUfMeoWEacJ8d56MO73A1V1d6wzLOJ8aLvWP8lAka85dV62zByfi8r1h28TeefJys22x92RnD4xfCB5PJ2AQzYK9N9fFGOFhP1YsmXm5-vy46KJEvBQM0eMvkQaV5eiHYYoO1ISKF9cXVrGQHnvbqr6AOaV7EFmi9XCyAIEbZAT33lHvo76KOui6rHXBY84_IOvPo3Ibd1onC9nzWqNBYeoo174IXUoO9IOCKt_8mZAUuJVq8i-Z2CCiIV1P59KaR9I4XxFePDydT1eUry4Z7lF9A4ckocUI3Cx8zv78dNaUHpnDaidily-8a6Pi6A6DIxydRbVFPwyTahyHG-oSCuK68s4fxJLngtMfxUWnNeNSk6LLveK1LhgHL4hXUOTYuQAxgEvU1hw_5dUIqPs6UUA75q0qR3Ex3EsHxgCQebTscELxMExeMlnHesXocQT-wZTOpIE_0JU7zGHzI7CjFjo15F1Q8LBv5xolZ29DX890sxfzyAh0gje3RdSLCLAjXKB2jBrSGQFGKka6QirmE5nzU9Sq8xgWaYZMUhjVw7Q-xtsulKbThyKRsttm2wnSLD1ofp9isKfhFWTtudv2uT2D7-d-7rszLj-hPeEk5gxWETnaRgVdtLXST5jI2eEv8cx_Rbuq7WklK_Wyl9ruYqC5vm9Om07i59j38RMnUJ9sPVl4cUtrBvpLAUGvdsktShreQtwYQuVIOdb__yxrm86YhV0Hr0dWUSrHeD8OkGN9RUQsouzs5gYLEqSDNOk---1ga4ylAllqiYZx30FROS2aTRLXmVN38wOJhstzQd_jkTlFSNl_0W00?></g></svg>