<?xml version="1.0" encoding="UTF-8"?>
<svg xmlns="http://www.w3.org/2000/svg" width="1000" height="520" viewBox="0 0 1000 520">
  <defs>
    <marker id="pwr" markerWidth="8" markerHeight="8" refX="7" refY="3" orient="auto">
      <path d="M0,0 L7,3 L0,6 Z" fill="#94a3b8"/>
    </marker>
  </defs>
  <rect width="1000" height="520" rx="16" fill="#0f172a"/>
  <text x="40" y="44" fill="#f9fafb" font-family="Arial,sans-serif" font-size="22" font-weight="700">Site energy and meters</text>
  <text x="40" y="68" fill="#9ca3af" font-family="Arial,sans-serif" font-size="13">Solid lines = power flow | Dashed boxes = what each meter measures</text>

  <g transform="translate(80,120)">
    <rect width="140" height="100" rx="12" fill="#1f2937" stroke="#f59e0b" stroke-width="2"/>
    <rect x="20" y="18" width="100" height="44" rx="6" fill="#0b1220" stroke="#fbbf24" stroke-width="1.5"/>
    <line x1="40" y1="18" x2="40" y2="62" stroke="#f59e0b" stroke-width="1"/>
    <line x1="70" y1="18" x2="70" y2="62" stroke="#f59e0b" stroke-width="1"/>
    <line x1="100" y1="18" x2="100" y2="62" stroke="#f59e0b" stroke-width="1"/>
    <text x="70" y="82" text-anchor="middle" fill="#f3f4f6" font-family="Arial,sans-serif" font-size="13" font-weight="600">Solar</text>
    <text x="70" y="98" text-anchor="middle" fill="#9ca3af" font-family="Arial,sans-serif" font-size="10">18 panels / 9 MI</text>
  </g>

  <g transform="translate(400,100)">
    <rect width="140" height="100" rx="12" fill="#1f2937" stroke="#22c55e" stroke-width="2"/>
    <path d="M70 16 L35 48 H55 V78 H85 V48 H105 Z" fill="#14532d" stroke="#22c55e" stroke-width="2"/>
    <text x="70" y="92" text-anchor="middle" fill="#f3f4f6" font-family="Arial,sans-serif" font-size="13" font-weight="600">Home</text>
  </g>

  <g transform="translate(720,120)">
    <rect width="140" height="100" rx="12" fill="#1f2937" stroke="#60a5fa" stroke-width="2"/>
    <path d="M70 18 L42 46 H56 V74 H84 V46 H98 Z" fill="none" stroke="#60a5fa" stroke-width="2.5"/>
    <text x="70" y="82" text-anchor="middle" fill="#f3f4f6" font-family="Arial,sans-serif" font-size="13" font-weight="600">Grid</text>
  </g>

  <g transform="translate(400,280)">
    <rect width="140" height="100" rx="12" fill="#1f2937" stroke="#38bdf8" stroke-width="2"/>
    <rect x="42" y="16" width="56" height="52" rx="8" fill="#0b1220" stroke="#38bdf8" stroke-width="2"/>
    <rect x="50" y="24" width="40" height="36" rx="4" fill="#064e3b"/>
    <text x="70" y="82" text-anchor="middle" fill="#f3f4f6" font-family="Arial,sans-serif" font-size="13" font-weight="600">Battery</text>
    <text x="70" y="98" text-anchor="middle" fill="#9ca3af" font-family="Arial,sans-serif" font-size="10">SF3000 + SFA3600</text>
  </g>

  <line x1="220" y1="170" x2="400" y2="150" stroke="#94a3b8" stroke-width="2.5" marker-end="url(#pwr)"/>
  <line x1="540" y1="150" x2="720" y2="170" stroke="#94a3b8" stroke-width="2.5" marker-end="url(#pwr)"/>
  <line x1="470" y1="200" x2="470" y2="280" stroke="#94a3b8" stroke-width="2.5" marker-end="url(#pwr)"/>

  <g transform="translate(248,228)">
    <rect width="150" height="72" rx="10" fill="#1f2937" stroke="#f59e0b" stroke-width="2" stroke-dasharray="5 4"/>
    <text x="75" y="26" text-anchor="middle" fill="#fbbf24" font-family="Arial,sans-serif" font-size="11" font-weight="600">MC100 meter</text>
    <text x="75" y="44" text-anchor="middle" fill="#9ca3af" font-family="Arial,sans-serif" font-size="10">PV power</text>
    <text x="75" y="58" text-anchor="middle" fill="#9ca3af" font-family="Arial,sans-serif" font-size="10">Grid import / export</text>
  </g>

  <g transform="translate(430,208)">
    <rect width="150" height="56" rx="10" fill="#1f2937" stroke="#a78bfa" stroke-width="2" stroke-dasharray="5 4"/>
    <text x="75" y="24" text-anchor="middle" fill="#c4b5fd" font-family="Arial,sans-serif" font-size="11" font-weight="600">SMD1 meter</text>
    <text x="75" y="42" text-anchor="middle" fill="#9ca3af" font-family="Arial,sans-serif" font-size="10">Home load (clamp)</text>
  </g>

  <g transform="translate(430,400)">
    <rect width="150" height="56" rx="10" fill="#1f2937" stroke="#38bdf8" stroke-width="2" stroke-dasharray="5 4"/>
    <text x="75" y="24" text-anchor="middle" fill="#7dd3fc" font-family="Arial,sans-serif" font-size="11" font-weight="600">SF3000 meter</text>
    <text x="75" y="42" text-anchor="middle" fill="#9ca3af" font-family="Arial,sans-serif" font-size="10">Battery SOC / power</text>
  </g>

  <line x1="323" y1="228" x2="280" y2="200" stroke="#f59e0b" stroke-width="1.5" stroke-dasharray="4 3"/>
  <line x1="505" y1="208" x2="470" y2="200" stroke="#a78bfa" stroke-width="1.5" stroke-dasharray="4 3"/>
  <line x1="505" y1="400" x2="470" y2="380" stroke="#38bdf8" stroke-width="1.5" stroke-dasharray="4 3"/>

  <text x="40" y="490" fill="#9ca3af" font-family="Arial,sans-serif" font-size="11">MC100 = Atmoce combiner | SMD1 pairs to SF3000 via LoRa</text>
</svg>
